<svg width="18" height="18" viewBox="0 0 18 18" fill="none" xmlns="http://www.w3.org/2000/svg">
  <g clip-path="url(#clip0_1775_1293)">
    <path
      d="M13.9091 11.5636C13.9091 6.25652 6.36251 8.91009 6.36251 6.37118C6.36251 5.55218 7.33823 4.94612 8.8323 4.94612C10.2044 4.94612 11.3326 5.66684 11.5155 6.55136H13.7261C13.5889 4.78232 12.1406 3.47192 9.99097 3.12794V0.818359H8.00904V3.09518C5.81367 3.3245 4.22812 4.50386 4.22812 6.30566C4.22812 11.5473 11.7747 8.76267 11.7747 11.4981C11.7747 12.3826 10.7532 13.0379 9.30491 13.0379C7.74986 13.0379 6.54546 12.3335 6.31677 11.236H4.09091C4.21288 13.1361 5.81367 14.4957 8.00904 14.8888V17.182H9.99097V14.9707C12.4455 14.7578 13.9091 13.3163 13.9091 11.5636Z"
      fill="currentColor"
    />
  </g>
  <defs>
    <clipPath id="clip0_1775_1293">
      <rect width="17.4545" height="17.4545" fill="currentColor" transform="translate(0.272736 0.272949)" />
    </clipPath>
  </defs>
</svg>
