<svg width="16" height="15" viewBox="0 0 16 15" fill="none" xmlns="http://www.w3.org/2000/svg">
  <path
    fill-rule="evenodd"
    clip-rule="evenodd"
    d="M9.55375 8.47143C9.46697 8.47793 9.0186 8.50469 8.01845 8.50469C7.22296 8.50469 6.65816 8.48083 6.46001 8.47143C3.3858 8.33619 1.09116 7.80104 1.09116 7.16031C1.09116 6.51958 3.3858 5.98515 6.46001 5.84774V7.93845C6.66105 7.95291 7.2367 7.9869 8.03219 7.9869C8.98678 7.9869 9.4648 7.94712 9.55086 7.93917V5.84919C12.6186 5.98587 14.9081 6.52102 14.9081 7.16031C14.9081 7.7996 12.6193 8.33475 9.55086 8.4707L9.55375 8.47143ZM9.55375 5.63296V3.76211H13.8349V0.90918H2.17882V3.76211H6.45929V5.63224C2.98009 5.79206 0.363647 6.48125 0.363647 7.30711C0.363647 8.13298 2.98009 8.82144 6.45929 8.98199V14.9771H9.55303V8.97982C13.0243 8.82 15.6364 8.13153 15.6364 7.30639C15.6364 6.48125 13.0264 5.79278 9.55303 5.63224L9.55375 5.63296Z"
    fill="currentColor"
  />
</svg>
