<svg viewBox="0 0 13 18" fill="none" xmlns="http://www.w3.org/2000/svg">
    <path d="M12.3296 7.39651C12.5868 5.67707 11.2777 4.75281 9.48766 4.13624L10.0684 1.80711L8.65055 1.45382L8.08525 3.72163C7.71252 3.62867 7.32974 3.54107 6.9493 3.45423L7.5187 1.17146L6.10177 0.818176L5.52075 3.14655C5.21231 3.07632 4.90936 3.00691 4.61544 2.93378L4.61708 2.92645L2.66189 2.43821L2.28473 3.95252C2.28473 3.95252 3.33663 4.19364 3.31446 4.20848C3.88859 4.35178 3.99242 4.73184 3.97518 5.03309L3.3137 7.68651C3.35324 7.69656 3.40452 7.71108 3.4611 7.73382C3.4138 7.72207 3.36347 7.70925 3.31124 7.69674L2.38407 11.4138C2.31391 11.5882 2.13581 11.85 1.7344 11.7506C1.74861 11.7712 0.703917 11.4935 0.703917 11.4935L0 13.1164L1.84505 13.5763C2.18829 13.6624 2.52465 13.7525 2.8559 13.8372L2.26919 16.193L3.68536 16.5463L4.26638 14.2155C4.65327 14.3205 5.02872 14.4174 5.39627 14.5087L4.81721 16.8285L6.23509 17.1818L6.82173 14.8304C9.2394 15.2879 11.0573 15.1035 11.8225 12.9167C12.439 11.1561 11.7918 10.1406 10.5198 9.47832C11.4463 9.26467 12.1435 8.65517 12.3296 7.39651ZM9.09023 11.9389C8.65206 13.6996 5.68773 12.7478 4.72665 12.5092L5.50522 9.38808C6.46623 9.628 9.5481 10.1028 9.09023 11.9389ZM9.52871 7.37099C9.129 8.97246 6.66176 8.15884 5.8614 7.95934L6.56728 5.1287C7.36763 5.32821 9.94496 5.70057 9.52871 7.37099Z" fill="currentColor"/>
</svg>