<svg viewBox="0 0 18 18" fill="none" xmlns="http://www.w3.org/2000/svg">
<g clip-path="url(#clip0_1775_1237)">
<path d="M0.818176 13.9095H6.08138C8.43049 13.9095 10.17 12.7547 10.17 11.0225C10.17 9.88252 9.36716 9.02382 8.07366 8.59447C9.05494 8.1207 9.69425 7.27681 9.69425 6.25525C9.69425 4.61187 8.23721 3.5459 6.08138 3.5459H0.818176V13.9095ZM7.70197 6.58096C7.70197 7.29161 6.95858 7.80979 6.08138 7.80979H2.89967V5.32252H6.08138C7.01805 5.32252 7.70197 5.8259 7.70197 6.58096ZM8.07366 10.8301C8.07366 11.6295 7.28567 12.1181 6.08138 12.1181H2.89967V9.5272H6.08138C7.33027 9.5272 8.07366 9.98616 8.07366 10.8301Z" fill="currentColor"/>
<path d="M17.1818 6.28486C15.591 6.28486 14.3569 7.11395 13.673 8.43161L13.45 6.50694H11.5915V13.9095H13.673V11.8072C13.673 9.73447 14.9665 8.47603 17.1818 8.47603V6.28486Z" fill="currentColor"/>
</g>
<defs>
<clipPath id="clip0_1775_1237">
<rect width="17.4545" height="17.4545" fill="currentColor" transform="translate(0.272736 0.272949)"/>
</clipPath>
</defs>
</svg>
