<svg viewBox="0 0 18 18" fill="none" xmlns="http://www.w3.org/2000/svg">
<g clip-path="url(#clip0_1775_1176)">
<path fill-rule="evenodd" clip-rule="evenodd" d="M2.65361 6.6413C1.33892 10.1319 3.15222 14.0758 6.68808 15.345C6.82408 15.4357 6.96007 15.617 6.96007 15.7529V16.3877C6.96007 16.4783 6.96007 16.5237 6.91471 16.5689C6.86945 16.7503 6.68808 16.8409 6.50672 16.7503C3.96819 15.9343 2.01889 13.985 1.20293 11.4465C-0.157022 7.14002 2.20026 2.56146 6.50672 1.20151C6.55209 1.15625 6.64272 1.15625 6.68808 1.15625C6.86945 1.20151 6.96007 1.3375 6.96007 1.51887V2.15347C6.96007 2.3802 6.86945 2.5162 6.68808 2.60682C4.82952 3.2868 3.33358 4.73737 2.65361 6.6413ZM11.0853 1.38287C11.1305 1.20151 11.3119 1.11088 11.4933 1.20151C13.9864 2.01748 15.9811 3.96677 16.7971 6.55067C18.157 10.8571 15.7997 15.4357 11.4933 16.7956C11.4479 16.8409 11.3573 16.8409 11.3119 16.8409C11.1305 16.7956 11.0399 16.6597 11.0399 16.4783V15.8437C11.0399 15.617 11.1305 15.481 11.3119 15.3903C13.1705 14.7104 14.6664 13.2598 15.3464 11.3559C16.6611 7.86525 14.8478 3.9214 11.3119 2.65219C11.1759 2.56146 11.0399 2.3802 11.0399 2.19884V1.56423C11.0399 1.4735 11.0399 1.42824 11.0853 1.38287ZM9.13486 8.22768C11.0388 8.4543 11.9907 8.99828 11.9907 10.5849C11.9907 11.8088 11.0841 12.7608 9.7242 12.9875V14.0755C9.67884 14.3021 9.54284 14.4381 9.36148 14.4381H8.68152C8.4549 14.3927 8.31891 14.2567 8.31891 14.0755V12.9875C6.82299 12.7608 6.09765 11.9448 5.9164 10.8116V10.7662C5.9164 10.5849 6.0524 10.4489 6.23365 10.4489H7.00435C7.14034 10.4489 7.27633 10.5396 7.32159 10.7208C7.45758 11.4008 7.86556 11.8995 9.04424 11.8995C9.90545 11.8995 10.5402 11.4009 10.5402 10.6756C10.5402 9.95025 10.1322 9.67826 8.86288 9.45163C6.95898 9.2249 6.0524 8.63566 6.0524 7.13971C6.0524 6.00638 6.91361 5.09978 8.27354 4.91842V3.87583C8.31891 3.6491 8.4549 3.5131 8.63626 3.5131H9.31623C9.54284 3.55847 9.67884 3.69446 9.67884 3.87583V4.96379C10.7214 5.05442 11.5374 5.82502 11.7187 6.82235V6.86772C11.7187 7.04898 11.5827 7.18497 11.4014 7.18497H10.6762C10.5402 7.18497 10.4042 7.09435 10.3588 6.95835C10.1322 6.27837 9.67884 6.00638 8.86288 6.00638C7.9563 6.00638 7.50295 6.41426 7.50295 7.04898C7.50295 7.68369 7.77494 8.04631 9.13486 8.22768Z" fill="currentColor"/>
</g>
<defs>
<clipPath id="clip0_1775_1176">
<rect width="17.4545" height="17.4545" fill="white" transform="translate(0.272736 0.272705)"/>
</clipPath>
</defs>
</svg>
