<svg viewBox="0 0 20 20" fill="none" xmlns="http://www.w3.org/2000/svg">
    <path d="M3.33333 1.66699L8.33333 1.66715V6.66699" fill="currentColor"/>
    <path d="M16.6667 18.3337H11.6667V13.3337" fill="currentColor"/>
    <path d="M11.6667 18.3337C11.6667 18.3337 12.3744 18.2326 15.3033 15.3036C18.2322 12.3747 18.2322 7.62596 15.3033 4.69703C14.2656 3.6593 12.9994 2.98924 11.6667 2.68685M11.6667 18.3337H16.6667M11.6667 18.3337L11.6667 13.3337M8.33333 1.66715C8.33333 1.66715 7.62563 1.76826 4.6967 4.69719C1.76777 7.62612 1.76777 12.3749 4.6967 15.3038C5.73443 16.3415 7.0006 17.0116 8.33333 17.314M8.33333 1.66715L3.33333 1.66699M8.33333 1.66715L8.33333 6.66699" stroke="currentColor" stroke-width="2" stroke-linecap="round" stroke-linejoin="round"/>
</svg>