<svg width="20" height="20" viewBox="0 0 20 20" fill="none" xmlns="http://www.w3.org/2000/svg">
  <path
    d="M6.54948 13.3334V15.6667C6.54948 16.6002 6.54948 17.0669 6.73198 17.4234C6.8925 17.737 7.14865 17.992 7.4637 18.1518C7.82187 18.3334 8.29074 18.3334 9.22847 18.3334H15.5911C16.5288 18.3334 16.9977 18.3334 17.3559 18.1518C17.6709 17.992 17.9271 17.737 18.0876 17.4234C18.2701 17.0669 18.2701 16.6002 18.2701 15.6667V9.33341C18.2701 8.39999 18.2701 7.93328 18.0876 7.57676C17.9271 7.26316 17.6709 7.00819 17.3559 6.8484C16.9977 6.66675 16.5288 6.66675 15.5911 6.66675H13.247M4.20536 13.3334H10.568C11.5057 13.3334 11.9746 13.3334 12.3327 13.1518C12.6478 12.992 12.9039 12.737 13.0645 12.4234C13.247 12.0669 13.247 11.6002 13.247 10.6667V4.33341C13.247 3.39999 13.247 2.93328 13.0645 2.57676C12.9039 2.26316 12.6478 2.00819 12.3327 1.8484C11.9746 1.66675 11.5057 1.66675 10.568 1.66675H4.20536C3.26763 1.66675 2.79876 1.66675 2.44059 1.8484C2.12554 2.00819 1.86939 2.26316 1.70886 2.57676C1.52637 2.93328 1.52637 3.39999 1.52637 4.33341V10.6667C1.52637 11.6002 1.52637 12.0669 1.70886 12.4234C1.86939 12.737 2.12554 12.992 2.44059 13.1518C2.79876 13.3334 3.26763 13.3334 4.20536 13.3334Z"
    stroke="currentColor"
    stroke-width="2"
    stroke-linecap="round"
    stroke-linejoin="round"
  />
</svg>
