<svg width="36" height="42" viewBox="0 0 36 42" fill="none" xmlns="http://www.w3.org/2000/svg">
  <path
    d="M21 19H9M13 27H9M25 11H9M33 21V10.6C33 7.23969 33 5.55953 32.346 4.27606C31.7708 3.14708 30.8529 2.2292 29.7239 1.65396C28.4405 1 26.7603 1 23.4 1H10.6C7.23969 1 5.55953 1 4.27606 1.65396C3.14708 2.2292 2.2292 3.14708 1.65396 4.27606C1 5.55953 1 7.23969 1 10.6V31.4C1 34.7603 1 36.4405 1.65396 37.7239C2.2292 38.8529 3.14708 39.7708 4.27606 40.346C5.55953 41 7.23969 41 10.6 41H17M25 29L35 39M35 29L25 39"
    stroke="currentColor"
    stroke-width="2"
    stroke-linecap="round"
    stroke-linejoin="round"
  />
</svg>
